<svg xmlns="http://www.w3.org/2000/svg" viewBox="0 0 1200 630" width="1200" height="630">
  <rect width="1200" height="630" fill="#FFFFFF"/>
  <circle cx="1010" cy="150" r="420" fill="#EAF0F7"/>
  <g transform="translate(960 330) scale(3.4)" fill="#C8A04D" stroke="#8A6D2E" stroke-opacity=".28" stroke-width="1.2">
    <path id="p" d="M0 2c0 0-7-7.6-5.8-15.8C-5-19.6-1.8-22.4 0-22.4s5 2.8 5.8 8.6C7-5.6 0 2 0 2Z"/>
    <use href="#p" transform="rotate(72)"/>
    <use href="#p" transform="rotate(144)"/>
    <use href="#p" transform="rotate(216)"/>
    <use href="#p" transform="rotate(288)"/>
  </g>
  <g font-family="Playfair Display, Georgia, Times New Roman, serif" fill="#0B2545">
    <text x="90" y="212" font-size="26" font-weight="600" letter-spacing="4" fill="#8A6D2E">PETALX</text>
    <text x="88" y="330" font-size="72" font-weight="800" letter-spacing="-3">Craft &#183; Collaboration</text>
    <text x="90" y="400" font-size="30" font-weight="400" fill="#52606D">An IT company in Tsuwano, Shimane, connecting</text>
    <text x="90" y="444" font-size="30" font-weight="400" fill="#52606D">Japanese craft with companies in the U.S.</text>
  </g>
  <g transform="translate(90 520)">
    <rect width="9" height="9" rx="4.5" fill="#C8A04D"/>
    <rect x="20" width="9" height="9" rx="4.5" fill="#C8A04D"/>
    <rect x="40" width="9" height="9" rx="4.5" fill="#C8A04D"/>
    <rect x="60" width="9" height="9" rx="4.5" fill="#C8A04D"/>
    <rect x="80" width="9" height="9" rx="4.5" fill="#C8A04D"/>
    <text x="112" y="9" font-family="Inter, sans-serif" font-size="20" font-weight="500" fill="#6B7684">Five petals · Five strategies</text>
  </g>
</svg>
